<svg width="34" height="32" viewBox="0 0 34 32" fill="none" xmlns="http://www.w3.org/2000/svg">
                        <path fill-rule="evenodd" clip-rule="evenodd" d="M10.7687 0.297545C10.0787 -0.0976262 9.23136 -0.0992777 8.53984 0.293201L1.13979 4.49318C0.0590788 5.10654 -0.319777 6.47987 0.293592 7.56058C0.90696 8.64129 2.28028 9.02014 3.36099 8.40677L7.40044 6.11414V19.05C7.40044 20.2926 8.4078 21.3 9.65044 21.3C10.8931 21.3 11.9004 20.2926 11.9004 19.05V6.13152L27.1354 14.857C23.9483 16.6848 20.1722 18.8279 16.8552 20.704C14.9695 21.7706 13.2342 22.7498 11.8426 23.5341C11.1972 23.1625 10.4486 22.95 9.65039 22.95C7.22034 22.95 5.25039 24.9199 5.25039 27.35C5.25039 29.78 7.22034 31.75 9.65039 31.75C12.045 31.75 13.9928 29.837 14.0491 27.456C15.4428 26.6705 17.1813 25.6895 19.0707 24.6209C23.6743 22.017 29.185 18.886 32.7813 16.7951C33.4764 16.391 33.903 15.6467 33.9004 14.8427C33.8978 14.0386 33.4664 13.2971 32.7687 12.8975L10.7687 0.297545Z" fill="currentColor"/>
                    </svg>
