<svg width="441" height="251" viewBox="0 0 441 251" fill="none" xmlns="http://www.w3.org/2000/svg">
<path fill-rule="evenodd" clip-rule="evenodd" d="M172.251 14.5333C153.051 10.2666 130.518 5.46667 122.251 4.13327C84.2512 -2.26675 58.9179 -2.95639e-05 36.3845 11.7333C6.78454 27.3334 -4.68213 56.6666 1.71788 100.4C8.51788 146 21.3179 183.2 37.4512 204.8C60.1179 234.8 97.3179 252.267 134.918 250.267C153.718 249.333 167.851 246.267 204.384 235.2C247.451 222.267 259.584 220.267 303.718 218.667C373.451 216.133 394.118 213.2 411.718 203.867C432.118 193.067 443.051 170.533 439.718 146.533C436.518 123.867 423.718 101.6 400.784 79.0667C385.984 64.4 377.451 58.1333 362.918 51.2C341.851 41.0667 322.118 36.9333 267.051 30.6666C222.651 25.6 215.718 24.5333 172.251 14.5333ZM34.6512 17.2001C43.8512 11.3334 50.2512 8.66667 62.3845 5.99997C74.1179 3.33337 106.251 4.26667 125.318 7.86667C133.184 9.33337 154.118 13.8667 171.984 18C208.251 26.4 227.051 29.6001 255.451 32.6667C342.784 42 363.984 48.9333 394.118 78C413.851 96.8 425.984 114.667 432.384 134C435.584 143.333 435.984 146.267 435.451 157.333C435.051 167.333 434.251 171.467 431.451 177.333C423.584 194.267 408.918 204.4 385.051 209.333C370.918 212.267 339.451 214.667 314.918 214.667C271.051 214.667 247.718 218.4 198.384 233.333C163.051 244.133 149.184 246.8 130.384 246.933C112.784 247.067 101.851 244.933 86.3845 238.133C48.9179 221.867 27.1845 192.267 13.8512 139.333C-3.34879 70.6667 2.25122 38.2667 34.6512 17.2001ZM186.651 26.5333C151.051 18.4 126.918 13.6001 114.384 12C88.7845 8.93327 69.5845 11.3334 51.9845 20C27.9845 32 15.8512 52.6667 15.7179 82C15.7179 98.133 23.5845 138.533 31.0512 160.667C43.5845 197.6 67.3179 222.533 101.851 235.067C113.318 239.2 114.384 239.333 135.051 239.333C158.384 239.2 167.718 237.6 200.384 227.333C237.984 215.6 265.318 210.667 294.384 210.667C321.318 210.667 358.251 208 370.651 205.333C393.851 200.267 407.184 191.467 414.651 176.267C418.918 167.733 419.051 166.667 419.051 152C418.918 137.6 418.651 136 414.518 126.133C407.851 110.8 398.118 97.067 383.584 82.5333C356.651 55.6001 334.518 47.2001 273.718 40.1334C229.584 34.9333 210.384 32 186.651 26.5333ZM70.6512 16.6667C58.9179 19.4667 44.5179 27.4667 37.0512 35.4667C23.1845 50 17.9845 69.3334 20.9179 94.667C24.2512 123.2 34.2512 161.333 43.3179 179.2C57.9845 208.267 84.6512 228.8 115.984 235.2C138.118 239.733 155.984 237.2 203.718 222.667C242.784 210.8 256.784 208.667 303.051 207.333C366.784 205.467 387.584 201.067 402.518 186.4C417.584 171.467 419.851 145.333 408.118 122.133C395.451 97.067 371.718 72.5333 349.584 61.4667C329.851 51.6001 307.984 46.8 257.051 41.3334C223.318 37.6001 208.384 35.0668 169.584 26.1334C152.118 22.1334 131.584 18 124.251 16.8C108.251 14.2667 80.6512 14.1334 70.6512 16.6667ZM147.718 26.5333C158.384 28.8 173.718 32.1334 181.718 34C211.051 40.8 218.518 42.1334 259.718 46.6667C304.918 51.8667 325.984 57.0668 343.984 67.6001C354.118 73.4667 378.518 97.467 385.718 108.533C388.518 112.933 392.651 120.667 394.918 125.867C398.651 134.533 399.051 136.533 399.051 150C399.051 163.467 398.784 165.2 395.318 171.733C388.118 185.333 377.184 193.2 358.384 197.867C349.718 200 331.184 201.467 277.718 204C246.384 205.467 237.584 207.067 199.051 218.667C167.584 228 158.784 229.733 141.051 229.733C123.584 229.867 114.251 227.867 99.3182 220.933C71.8512 208 53.0512 184.267 43.1845 150C33.9845 117.867 30.1179 88 32.9179 71.3334C37.0512 47.4667 53.1845 30.8 78.6512 24C93.1845 20 121.584 21.0668 147.718 26.5333ZM52.5179 42.4C60.3845 34.6666 72.7845 28.4 84.5179 26C102.518 22.5333 122.918 24.1333 157.718 32.1333C199.718 41.7334 221.184 45.6 254.384 49.3334C320.251 57.0667 336.518 62.6666 361.451 86.5333C385.184 109.2 396.784 132.4 395.451 154C394.118 173.867 381.718 187.6 359.718 193.867C347.051 197.333 333.451 198.667 293.584 200C245.984 201.6 239.051 202.667 193.718 216.667C150.918 229.733 126.251 230 100.384 217.333C66.2512 200.667 48.6512 170.4 38.3845 110C32.6512 76.5333 36.6512 57.8667 52.5179 42.4ZM169.584 38.5333C157.051 35.7334 140.518 32.4 132.918 31.3334C98.5179 26.5333 75.7179 32 59.4512 48.9333C48.1179 60.8 45.7179 68.2667 45.8512 90.6666C45.9845 104.933 46.6512 111.867 49.4512 124C60.7845 174.4 76.3845 198.8 106.784 213.067C120.784 219.733 132.118 221.867 150.118 220.933C166.251 220.267 173.318 218.667 211.718 207.333C239.984 198.933 247.051 198.133 299.718 196C333.318 194.667 346.251 192.8 358.384 187.2C381.984 176.4 389.718 149.733 377.051 122.8C371.451 111.2 365.984 103.6 353.851 90.9333C329.984 66.1333 312.784 59.7334 249.718 52.6666C217.451 49.0667 206.518 47.0667 169.584 38.5333ZM91.1845 34.8C74.2512 38.9333 58.5178 51.8667 52.9179 66.4C46.5178 82.2667 50.1178 117.733 61.1845 151.2C72.6512 185.467 90.9179 204.667 122.384 215.467C127.984 217.467 133.318 218 145.051 217.867C161.984 217.733 167.318 216.8 201.051 206.8C233.318 197.2 239.184 196.133 267.051 194.667C329.051 191.333 336.518 190.667 345.184 188.267C387.184 176.4 390.384 135.467 352.384 94.933C337.718 79.2001 323.584 70.2667 304.918 64.8C296.518 62.4 270.384 58 257.051 56.6667C235.318 54.5334 207.051 50.4 193.051 47.2001C190.558 46.646 187.372 45.9392 183.827 45.153C175.429 43.2903 165.02 40.9814 157.051 39.2001C139.718 35.2001 133.184 34.4 116.384 34C105.451 33.6001 93.9845 34 91.1845 34.8Z" fill="white"/>
</svg>
