<svg width="83" height="80" viewBox="0 0 83 80" fill="none" xmlns="http://www.w3.org/2000/svg">
<g clip-path="url(#clip0)">
<path d="M41.5322 79.7311C64.1759 79.7311 82.5322 62.0463 82.5322 40.2311C82.5322 18.4158 64.1759 0.731079 41.5322 0.731079C18.8886 0.731079 0.532227 18.4158 0.532227 40.2311C0.532227 62.0463 18.8886 79.7311 41.5322 79.7311Z" fill="black"/>
<path d="M55.7456 29.3853C57.5571 29.3853 59.0256 27.9465 59.0256 26.1717C59.0256 24.3969 57.5571 22.9582 55.7456 22.9582C53.9341 22.9582 52.4656 24.3969 52.4656 26.1717C52.4656 27.9465 53.9341 29.3853 55.7456 29.3853Z" fill="white"/>
<mask id="mask0" mask-type="alpha" maskUnits="userSpaceOnUse" x="13" y="13" width="57" height="55">
<path fill-rule="evenodd" clip-rule="evenodd" d="M29.2322 18.6734H53.8322C59.2666 18.6734 63.6722 22.9897 63.6722 28.3141V52.148C63.6722 57.4723 59.2666 61.7887 53.8322 61.7887H29.2322C23.7977 61.7887 19.3922 57.4723 19.3922 52.148V28.3141C19.3922 22.9897 23.7977 18.6734 29.2322 18.6734ZM13.9255 28.3141C13.9255 20.0317 20.7786 13.3175 29.2322 13.3175H53.8322C62.2859 13.3175 69.1389 20.0317 69.1389 28.3141V52.148C69.1389 60.4304 62.2859 67.1446 53.8322 67.1446H29.2322C20.7786 67.1446 13.9255 60.4304 13.9255 52.148V28.3141ZM50.2789 40.2311C50.2789 45.0377 46.3016 48.9345 41.3955 48.9345C36.4895 48.9345 32.5122 45.0377 32.5122 40.2311C32.5122 35.4244 36.4895 31.5277 41.3955 31.5277C46.3016 31.5277 50.2789 35.4244 50.2789 40.2311ZM55.7455 40.2311C55.7455 47.9958 49.3208 54.2904 41.3955 54.2904C33.4702 54.2904 27.0455 47.9958 27.0455 40.2311C27.0455 32.4663 33.4702 26.1717 41.3955 26.1717C49.3208 26.1717 55.7455 32.4663 55.7455 40.2311Z" fill="white"/>
</mask>
<g mask="url(#mask0)">
<path fill-rule="evenodd" clip-rule="evenodd" d="M29.2322 18.6734H53.8322C59.2666 18.6734 63.6722 22.9897 63.6722 28.3141V52.148C63.6722 57.4723 59.2666 61.7887 53.8322 61.7887H29.2322C23.7977 61.7887 19.3922 57.4723 19.3922 52.148V28.3141C19.3922 22.9897 23.7977 18.6734 29.2322 18.6734ZM13.9255 28.3141C13.9255 20.0317 20.7786 13.3175 29.2322 13.3175H53.8322C62.2859 13.3175 69.1389 20.0317 69.1389 28.3141V52.148C69.1389 60.4304 62.2859 67.1446 53.8322 67.1446H29.2322C20.7786 67.1446 13.9255 60.4304 13.9255 52.148V28.3141ZM50.2789 40.2311C50.2789 45.0377 46.3016 48.9345 41.3955 48.9345C36.4895 48.9345 32.5122 45.0377 32.5122 40.2311C32.5122 35.4244 36.4895 31.5277 41.3955 31.5277C46.3016 31.5277 50.2789 35.4244 50.2789 40.2311ZM55.7455 40.2311C55.7455 47.9958 49.3208 54.2904 41.3955 54.2904C33.4702 54.2904 27.0455 47.9958 27.0455 40.2311C27.0455 32.4663 33.4702 26.1717 41.3955 26.1717C49.3208 26.1717 55.7455 32.4663 55.7455 40.2311Z" fill="#C4C4C4" fill-opacity="0.5"/>
<path d="M53.8322 13.3175H29.2322V24.0294H53.8322V13.3175ZM69.1389 28.3141C69.1389 20.0317 62.2858 13.3175 53.8322 13.3175V24.0294C56.2476 24.0294 58.2055 25.9477 58.2055 28.3141H69.1389ZM69.1389 52.148V28.3141H58.2055V52.148H69.1389ZM53.8322 67.1446C62.2858 67.1446 69.1389 60.4304 69.1389 52.148H58.2055C58.2055 54.5145 56.2476 56.4328 53.8322 56.4328V67.1446ZM29.2322 67.1446H53.8322V56.4328H29.2322V67.1446ZM13.9255 52.148C13.9255 60.4304 20.7785 67.1446 29.2322 67.1446V56.4328C26.8169 56.4328 24.8589 54.5145 24.8589 52.148H13.9255ZM13.9255 28.3141V52.148H24.8589V28.3141H13.9255ZM29.2322 13.3175C20.7786 13.3175 13.9255 20.0317 13.9255 28.3141H24.8589C24.8589 25.9477 26.8169 24.0294 29.2322 24.0294V13.3175ZM29.2322 7.96158C17.7594 7.96158 8.45886 17.0737 8.45886 28.3141H19.3922C19.3922 22.9897 23.7977 18.6734 29.2322 18.6734V7.96158ZM53.8322 7.96158H29.2322V18.6734H53.8322V7.96158ZM74.6055 28.3141C74.6055 17.0737 65.3051 7.96158 53.8322 7.96158V18.6734C59.2666 18.6734 63.6722 22.9897 63.6722 28.3141H74.6055ZM74.6055 52.148V28.3141H63.6722V52.148H74.6055ZM53.8322 72.5006C65.3051 72.5006 74.6055 63.3885 74.6055 52.148H63.6722C63.6722 57.4724 59.2666 61.7887 53.8322 61.7887V72.5006ZM29.2322 72.5006H53.8322V61.7887H29.2322V72.5006ZM8.45886 52.148C8.45886 63.3885 17.7594 72.5006 29.2322 72.5006V61.7887C23.7977 61.7887 19.3922 57.4724 19.3922 52.148H8.45886ZM8.45886 28.3141V52.148H19.3922V28.3141H8.45886ZM41.3955 54.2904C49.3208 54.2904 55.7455 47.9958 55.7455 40.2311H44.8122C44.8122 42.0799 43.2826 43.5785 41.3955 43.5785V54.2904ZM27.0455 40.2311C27.0455 47.9958 33.4702 54.2904 41.3955 54.2904V43.5785C39.5084 43.5785 37.9789 42.0799 37.9789 40.2311H27.0455ZM41.3955 26.1717C33.4702 26.1717 27.0455 32.4663 27.0455 40.2311H37.9789C37.9789 38.3822 39.5084 36.8836 41.3955 36.8836V26.1717ZM55.7455 40.2311C55.7455 32.4663 49.3208 26.1717 41.3955 26.1717V36.8836C43.2826 36.8836 44.8122 38.3822 44.8122 40.2311H55.7455ZM41.3955 59.6463C52.3401 59.6463 61.2122 50.9539 61.2122 40.2311H50.2789C50.2789 45.0378 46.3016 48.9345 41.3955 48.9345V59.6463ZM21.5789 40.2311C21.5789 50.9539 30.451 59.6463 41.3955 59.6463V48.9345C36.4895 48.9345 32.5122 45.0378 32.5122 40.2311H21.5789ZM41.3955 20.8158C30.451 20.8158 21.5789 29.5082 21.5789 40.2311H32.5122C32.5122 35.4244 36.4895 31.5277 41.3955 31.5277V20.8158ZM61.2122 40.2311C61.2122 29.5082 52.3401 20.8158 41.3955 20.8158V31.5277C46.3016 31.5277 50.2789 35.4244 50.2789 40.2311H61.2122Z" fill="white"/>
</g>
</g>
<defs>
<clipPath id="clip0">
<rect width="82" height="79" fill="white" transform="translate(0.532227 0.731079)"/>
</clipPath>
</defs>
</svg>
