<svg width="37" height="41" viewBox="0 0 37 41" fill="none" xmlns="http://www.w3.org/2000/svg">
<path fill-rule="evenodd" clip-rule="evenodd" d="M8.72791 0C8.63088 0 8.53583 0.00859354 8.44347 0.0250591C8.05296 0.0431319 7.66768 0.202671 7.36949 0.503644L0.475921 7.46157C-0.15864 8.10206 -0.15864 9.14044 0.475921 9.7809L2.77376 12.1002C3.40832 12.7407 4.4371 12.7407 5.07162 12.1002L7.10308 10.0498V25.2823C4.23376 26.5477 2.22859 29.4373 2.22859 32.8C2.22859 37.3287 5.86587 41 10.3527 41C14.8396 41 18.4769 37.3287 18.4769 32.8C18.4769 29.4373 16.4717 26.5477 13.6024 25.2823V1.64C13.6024 0.734261 12.8749 0 11.9776 0H8.72791ZM15.2272 1.64V3.608V4.92V24.2764C18.1412 25.9778 20.1017 29.1579 20.1017 32.8C20.1017 33.95 19.9062 35.054 19.547 36.08H35.3752C36.2724 36.08 37 35.3456 37 34.44V34.112V31.16V9.84C37 9.45896 36.8713 9.1083 36.6552 8.82986C36.599 8.74642 36.534 8.66707 36.4606 8.59301L28.4462 0.503644C28.3117 0.36818 28.1599 0.261351 27.9978 0.183188C27.7742 0.0661249 27.5204 0 27.251 0H16.8521C15.9547 0 15.2272 0.734261 15.2272 1.64ZM30.5007 11.8546L25.255 6.56H21.7266V29.52H30.5007V11.8546Z" fill="white"/>
</svg>
