<svg width="83" height="80" viewBox="0 0 83 80" fill="none" xmlns="http://www.w3.org/2000/svg">
<ellipse cx="41.5" cy="40.2311" rx="41.0323" ry="39.3333" fill="black"/>
<path fill-rule="evenodd" clip-rule="evenodd" d="M6.62261 56.3644C4.98132 49.9644 5.00617 32.7644 6.62261 24.0977C7.16971 21.1644 10.3155 17.2977 14.282 16.6311C18.2484 15.9644 61.6058 15.1644 68.171 16.6311C72.4573 17.5886 75.5568 19.2977 76.7878 25.1644C78.83 34.8977 77.161 52.7644 76.7877 55.831C76.7846 55.8569 76.7814 55.8835 76.7781 55.9108C76.5943 57.438 76.1251 61.3376 69.6755 63.5644C63.1103 65.831 17.9749 64.3644 15.1026 63.6977C14.8522 63.6396 14.5936 63.5845 14.3288 63.5282C11.5565 62.9379 8.12083 62.2065 6.62261 56.3644ZM34.3878 29.5644V50.7644L52.989 40.3644L34.3878 29.5644Z" fill="white"/>
</svg>
